<svg xmlns="http://www.w3.org/2000/svg" xmlns:xlink="http://www.w3.org/1999/xlink" version="1.1" x="0px" y="0px" viewBox="0 0 70 87.5" enable-background="new 0 0 70 70" xml:space="preserve"><path d="M55.838,32.704V10.59c0-6.73-13.981-10.361-27.137-10.361S1.564,3.859,1.564,10.59v43.043  c0,6.732,13.981,10.365,27.137,10.365c2.239,0,4.474-0.115,6.666-0.313c3.491,3.735,8.445,6.087,13.949,6.087  c10.542,0,19.119-8.577,19.119-19.119C68.436,42.403,63.174,35.379,55.838,32.704z M28.701,3.229  c14.954,0,24.137,4.287,24.137,7.361s-9.183,7.363-24.137,7.363S4.564,13.664,4.564,10.59S13.747,3.229,28.701,3.229z M4.564,15.53  c4.814,3.549,14.688,5.423,24.137,5.423s19.322-1.874,24.137-5.423v16.343c-1.143-0.214-2.317-0.339-3.521-0.339  c-6.275,0-11.837,3.053-15.324,7.735c-1.715,0.128-3.484,0.203-5.291,0.203c-14.954,0-24.137-4.287-24.137-7.361V15.53z   M28.701,60.998c-14.954,0-24.137-4.29-24.137-7.365V37.051c4.814,3.549,14.688,5.422,24.137,5.422c1.146,0,2.28-0.03,3.399-0.08  c-1.206,2.505-1.902,5.299-1.902,8.26c0,3.748,1.1,7.236,2.971,10.19C31.688,60.935,30.197,60.998,28.701,60.998z M49.316,66.771  c-8.888,0-16.118-7.231-16.118-16.119s7.23-16.118,16.118-16.118s16.119,7.23,16.119,16.118S58.204,66.771,49.316,66.771z"/><path d="M44.854,39.956h-2.076c-2.272,0-4.122,1.85-4.122,4.122v2.076c0,2.273,1.85,4.123,4.122,4.123h2.076  c2.273,0,4.123-1.85,4.123-4.123v-2.076C48.977,41.806,47.127,39.956,44.854,39.956z M45.977,46.154  c0,0.619-0.504,1.123-1.123,1.123h-2.076c-0.619,0-1.122-0.504-1.122-1.123v-2.076c0-0.619,0.503-1.122,1.122-1.122h2.076  c0.619,0,1.123,0.503,1.123,1.122V46.154z"/><path d="M55.855,39.956h-2.076c-2.272,0-4.122,1.85-4.122,4.122v2.076c0,2.273,1.85,4.123,4.122,4.123h2.076  c2.273,0,4.123-1.85,4.123-4.123v-2.076C59.979,41.806,58.129,39.956,55.855,39.956z M56.979,46.154  c0,0.619-0.504,1.123-1.123,1.123h-2.076c-0.619,0-1.122-0.504-1.122-1.123v-2.076c0-0.619,0.503-1.122,1.122-1.122h2.076  c0.619,0,1.123,0.503,1.123,1.122V46.154z"/><path d="M44.854,51.028h-2.076c-2.272,0-4.122,1.85-4.122,4.122v2.076c0,2.273,1.85,4.123,4.122,4.123h2.076  c2.273,0,4.123-1.85,4.123-4.123V55.15C48.977,52.878,47.127,51.028,44.854,51.028z M45.977,57.227c0,0.619-0.504,1.123-1.123,1.123  h-2.076c-0.619,0-1.122-0.504-1.122-1.123V55.15c0-0.619,0.503-1.122,1.122-1.122h2.076c0.619,0,1.123,0.503,1.123,1.122V57.227z"/><path d="M55.855,51.028h-2.076c-2.272,0-4.122,1.85-4.122,4.122v2.076c0,2.273,1.85,4.123,4.122,4.123h2.076  c2.273,0,4.123-1.85,4.123-4.123V55.15C59.979,52.878,58.129,51.028,55.855,51.028z M56.979,57.227c0,0.619-0.504,1.123-1.123,1.123  h-2.076c-0.619,0-1.122-0.504-1.122-1.123V55.15c0-0.619,0.503-1.122,1.122-1.122h2.076c0.619,0,1.123,0.503,1.123,1.122V57.227z"/><text x="0" y="85" fill="#000000" font-size="5px" font-weight="bold" font-family="'Helvetica Neue', Helvetica, Arial-Unicode, Arial, Sans-serif">Created by Mohamed Mb</text><text x="0" y="90" fill="#000000" font-size="5px" font-weight="bold" font-family="'Helvetica Neue', Helvetica, Arial-Unicode, Arial, Sans-serif">from the Noun Project</text></svg>